<svg width="20" height="21" viewBox="0 0 20 21" fill="none" xmlns="http://www.w3.org/2000/svg">
<path d="M0.312336 0H1.25001V0.3136C2.55535 0.6202 2.74302 1.89245 2.81668 2.3786C2.85168 2.60855 2.92269 3.0583 3.01069 3.6092H19.3375C19.9835 3.6092 20.0558 4.24305 19.9715 4.59375L18.0561 13.4722C17.9721 13.8229 17.6184 14.1092 17.2718 14.1092H2.95702C2.61235 14.1092 2.33135 14.4036 2.33135 14.7654C2.33135 15.1273 2.61235 15.4217 2.95702 15.4217H18.5818C18.7475 15.4217 18.9065 15.4908 19.0237 15.6139C19.1409 15.737 19.2068 15.9039 19.2068 16.0779C19.2068 16.252 19.1409 16.4189 19.0237 16.542C18.9065 16.6651 18.7475 16.7342 18.5818 16.7342H17.7718C18.1629 16.9609 18.4889 17.2936 18.7159 17.6976C18.9429 18.1016 19.0626 18.5622 19.0625 19.0312H18.4374C18.4374 20.118 17.5974 21 16.5624 21C15.5274 21 14.6874 20.118 14.6874 19.0312H14.0624C14.0623 18.5621 14.1821 18.1016 14.4091 17.6976C14.6362 17.2936 14.9623 16.9609 15.3534 16.7342H6.52204C6.91318 16.9609 7.23927 17.2936 7.46633 17.6976C7.6934 18.1016 7.81313 18.5621 7.81305 19.0312H7.18805C7.17878 19.5471 6.97713 20.0385 6.62644 20.3998C6.27576 20.7611 5.80404 20.9636 5.3127 20.9636C4.82136 20.9636 4.34964 20.7611 3.99896 20.3998C3.64827 20.0385 3.44662 19.5471 3.43736 19.0312H2.81235C2.81231 18.5622 2.93202 18.1017 3.15902 17.6977C3.38601 17.2937 3.71199 16.961 4.10303 16.7342H2.95635C2.45915 16.7339 1.98239 16.5264 1.63081 16.1573C1.27924 15.7881 1.08161 15.2875 1.08134 14.7654C1.08138 14.5069 1.12993 14.2508 1.22422 14.0119C1.31851 13.7731 1.45668 13.556 1.63085 13.3732C1.80503 13.1904 2.01179 13.0454 2.23933 12.9465C2.46687 12.8475 2.71074 12.7967 2.95702 12.7967H3.18935L2.39001 7.5782C2.16735 6.1999 1.68734 3.22245 1.57468 2.48185C1.51801 2.1077 1.46301 1.84485 1.25001 1.6975V1.9684H0.312336C0.229637 1.96812 0.150396 1.93353 0.0918884 1.87216C0.0333805 1.8108 0.000350952 1.72763 0 1.6408V0.3283C0.000175476 0.241347 0.0331287 0.158002 0.0916557 0.0964843C0.150183 0.0349661 0.229523 0.000277315 0.312336 0ZM16.5624 20.0158C16.811 20.0155 17.0494 19.9117 17.2252 19.7271C17.401 19.5425 17.4998 19.2923 17.5001 19.0312H15.6251C15.6254 19.2922 15.7242 19.5424 15.8999 19.727C16.0756 19.9116 16.3139 20.0154 16.5624 20.0158ZM5.31237 20.0158C5.56103 20.0156 5.79946 19.9118 5.97532 19.7272C6.15119 19.5427 6.25011 19.2923 6.25037 19.0312H4.37469C4.37514 19.2922 4.47407 19.5424 4.64982 19.7269C4.82557 19.9115 5.06382 20.0153 5.31237 20.0158ZM6.08137 5.2479C6.07037 5.15895 6.02933 5.0771 5.96571 5.01723C5.90209 4.95737 5.82012 4.92347 5.7347 4.9217H3.75569C3.58369 4.9217 3.46402 5.0673 3.49102 5.24615L3.68702 6.566C3.71302 6.7445 3.87602 6.89045 4.04836 6.89045H5.93604C5.97579 6.89156 6.01529 6.88361 6.05184 6.86715C6.08838 6.8507 6.1211 6.82613 6.14774 6.79513C6.17438 6.76413 6.19431 6.72744 6.20616 6.68759C6.218 6.64773 6.22149 6.60565 6.21637 6.56425L6.08137 5.2479ZM6.41771 8.52915C6.40651 8.44028 6.36541 8.35855 6.30183 8.29873C6.23825 8.23891 6.15639 8.20493 6.07104 8.20295H4.24336C4.07103 8.20295 3.95169 8.34855 3.97769 8.5274L4.12536 9.5193C4.15169 9.6978 4.31436 9.84375 4.48669 9.84375H6.23904C6.27876 9.84474 6.31821 9.83671 6.3547 9.82021C6.39119 9.80372 6.42386 9.77915 6.45048 9.74818C6.47709 9.71721 6.49703 9.68057 6.50892 9.64077C6.52081 9.60096 6.52437 9.55893 6.51937 9.51755L6.41771 8.52915ZM18.3781 6.57195L18.6948 5.2402C18.7361 5.0645 18.6288 4.9217 18.4564 4.9217H16.1034C15.9308 4.9217 15.7751 5.06835 15.7568 5.2479L15.6221 6.5646C15.6171 6.60595 15.6207 6.64795 15.6325 6.68773C15.6444 6.72751 15.6643 6.76413 15.6909 6.79509C15.7175 6.82606 15.7501 6.85064 15.7865 6.86715C15.823 6.88367 15.8624 6.89174 15.9021 6.8908H17.9891C18.1611 6.8908 18.3364 6.74695 18.3781 6.57195ZM17.2878 9.84375C17.4598 9.84375 17.6351 9.70025 17.6764 9.52525L17.9151 8.5218C17.9568 8.3461 17.8501 8.2033 17.6778 8.2033H15.7681C15.5958 8.2033 15.4398 8.34995 15.4214 8.5295L15.3201 9.5179C15.315 9.55926 15.3186 9.60129 15.3304 9.64109C15.3423 9.68089 15.3622 9.71754 15.3888 9.74852C15.4153 9.77949 15.448 9.80407 15.4845 9.82057C15.5209 9.83707 15.5604 9.84509 15.6001 9.8441H17.2878V9.84375ZM15.2981 12.797H16.5864C16.7594 12.797 16.9338 12.6536 16.9754 12.4785L17.2141 11.4751C17.2554 11.2994 17.1488 11.1566 16.9761 11.1566H15.4661C15.2938 11.1566 15.1378 11.3032 15.1188 11.4828L15.0181 12.4712C15.013 12.5125 15.0166 12.5546 15.0284 12.5943C15.0403 12.6341 15.0602 12.6708 15.0868 12.7017C15.1134 12.7327 15.146 12.7572 15.1825 12.7737C15.219 12.7901 15.2584 12.7981 15.2981 12.797ZM11.4674 12.4688C11.4678 12.5558 11.5009 12.6392 11.5596 12.7007C11.6183 12.7622 11.6978 12.7969 11.7807 12.797H13.4111C13.4964 12.7952 13.5783 12.7613 13.6419 12.7014C13.7054 12.6416 13.7464 12.5597 13.7574 12.4708L13.8588 11.4824C13.8639 11.4411 13.8605 11.3991 13.8487 11.3592C13.8369 11.3194 13.817 11.2827 13.7905 11.2517C13.7639 11.2207 13.7312 11.1961 13.6947 11.1797C13.6583 11.1632 13.6188 11.1552 13.5791 11.1562H11.7807C11.6978 11.1562 11.6182 11.1908 11.5594 11.2524C11.5007 11.3139 11.4676 11.3974 11.4674 11.4845V12.4688ZM11.4674 9.5158C11.4678 9.60288 11.5009 9.68627 11.5596 9.74778C11.6183 9.80929 11.6978 9.84392 11.7807 9.8441H13.7134C13.8854 9.8441 14.0408 9.69745 14.0601 9.5179L14.1608 8.5295C14.1659 8.48816 14.1624 8.44614 14.1506 8.40633C14.1388 8.36653 14.1189 8.32988 14.0923 8.29889C14.0658 8.26791 14.0331 8.24332 13.9967 8.22682C13.9602 8.21032 13.9208 8.2023 13.8811 8.2033H11.7807C11.6978 8.2033 11.6182 8.23787 11.5594 8.29941C11.5007 8.36096 11.4676 8.44446 11.4674 8.5316V9.5158ZM11.4674 6.5625C11.4678 6.64958 11.5009 6.73297 11.5596 6.79448C11.6183 6.85599 11.6978 6.89062 11.7807 6.8908H14.0148C14.1002 6.88903 14.1821 6.85513 14.2458 6.79527C14.3094 6.7354 14.3504 6.65355 14.3614 6.5646L14.4961 5.2479C14.5011 5.20654 14.4976 5.16451 14.4858 5.12471C14.4739 5.08491 14.454 5.04826 14.4274 5.01728C14.4008 4.98631 14.3682 4.96173 14.3317 4.94523C14.2952 4.92873 14.2558 4.92071 14.2161 4.9217H11.7804C11.6974 4.9217 11.6178 4.95627 11.5591 5.01781C11.5003 5.07936 11.4672 5.16287 11.4671 5.25V6.5625H11.4674ZM8.08105 12.4708C8.09212 12.5598 8.13318 12.6416 8.19679 12.7014C8.26039 12.7613 8.34233 12.7952 8.42772 12.797H9.90106C9.98396 12.7969 10.0634 12.7622 10.1221 12.7007C10.1807 12.6392 10.2138 12.5558 10.2141 12.4688V11.4842C10.2139 11.3971 10.1808 11.3137 10.1222 11.2521C10.0635 11.1906 9.98399 11.156 9.90106 11.1559H8.25972C8.08772 11.1559 7.96105 11.3025 7.97972 11.4821L8.08105 12.4708ZM7.77905 9.51755C7.79012 9.60647 7.83118 9.68828 7.89479 9.74814C7.95839 9.80799 8.04033 9.84191 8.12572 9.84375H9.90106C9.98396 9.84356 10.0634 9.80893 10.1221 9.74741C10.1807 9.68589 10.2138 9.6025 10.2141 9.51545V8.5309C10.2139 8.44383 10.1808 8.36038 10.1222 8.29884C10.0635 8.2373 9.98399 8.20269 9.90106 8.2026H7.95772C7.78538 8.2026 7.65905 8.34925 7.67805 8.5288L7.77905 9.51755ZM7.47705 6.5646C7.48811 6.65352 7.52918 6.73534 7.59278 6.79519C7.65639 6.85504 7.73832 6.88896 7.82372 6.8908H9.90106C9.98396 6.89061 10.0634 6.85598 10.1221 6.79446C10.1807 6.73294 10.2138 6.64955 10.2141 6.5625V5.25C10.2139 5.16293 10.1808 5.07948 10.1222 5.01794C10.0635 4.9564 9.98399 4.92179 9.90106 4.9217H7.62205C7.44971 4.9217 7.32338 5.06835 7.34171 5.2479L7.47705 6.5646ZM5.06637 12.797V12.7946L5.06903 12.797H6.54104C6.55071 12.797 6.55904 12.7921 6.56871 12.7907C6.57038 12.7788 6.57037 12.767 6.57237 12.7544L6.58704 12.7866C6.58298 12.7877 6.57886 12.7886 6.57471 12.7893C6.72838 12.7708 6.83838 12.6375 6.82071 12.4708L6.72004 11.4824C6.70884 11.3936 6.66774 11.3119 6.60417 11.252C6.54059 11.1922 6.45872 11.1582 6.37337 11.1562H4.68136C4.50903 11.1562 4.39036 11.3018 4.41636 11.4807L4.56403 12.4726C4.5897 12.6511 4.75236 12.797 4.9247 12.797H5.06637Z" fill="black"/>
</svg>
