<svg width="20" height="19" viewBox="0 0 20 19" fill="none" xmlns="http://www.w3.org/2000/svg">
<path d="M10.2317 2.88665C10.1696 2.82731 10.0871 2.79419 10.0012 2.79419C9.9154 2.79419 9.83287 2.82731 9.77083 2.88665L2.10002 10.2145C2.06744 10.2457 2.04152 10.2832 2.02383 10.3246C2.00614 10.3661 1.99705 10.4107 1.9971 10.4558L1.99585 17.3333C1.99585 17.6869 2.13633 18.026 2.38637 18.2761C2.63642 18.5261 2.97556 18.6666 3.32918 18.6666H7.33334C7.51015 18.6666 7.67972 18.5964 7.80474 18.4714C7.92976 18.3463 8 18.1768 8 17.9999V12.3333C8 12.2449 8.03512 12.1601 8.09763 12.0976C8.16014 12.0351 8.24493 12 8.33333 12H11.6667C11.7551 12 11.8399 12.0351 11.9024 12.0976C11.9649 12.1601 12 12.2449 12 12.3333V17.9999C12 18.1768 12.0702 18.3463 12.1953 18.4714C12.3203 18.5964 12.4898 18.6666 12.6667 18.6666H16.6691C17.0228 18.6666 17.3619 18.5261 17.612 18.2761C17.862 18.026 18.0025 17.6869 18.0025 17.3333V10.4558C18.0025 10.4107 17.9934 10.3661 17.9757 10.3246C17.9581 10.2832 17.9321 10.2457 17.8996 10.2145L10.2317 2.88665Z" fill="black"/>
<path d="M19.7879 8.83956L16.6712 5.8579V1.33333C16.6712 1.15652 16.601 0.986951 16.476 0.861927C16.3509 0.736903 16.1814 0.666665 16.0046 0.666665H14.0046C13.8278 0.666665 13.6582 0.736903 13.5332 0.861927C13.4081 0.986951 13.3379 1.15652 13.3379 1.33333V2.66666L10.9246 0.359166C10.6987 0.130833 10.3629 0 9.99999 0C9.63833 0 9.30333 0.130833 9.07749 0.359582L0.215015 8.83873C-0.0441508 9.08873 -0.0766507 9.49998 0.159182 9.77081C0.218403 9.83917 0.290916 9.89477 0.372306 9.93422C0.453696 9.97366 0.542263 9.99614 0.632614 10.0003C0.722966 10.0044 0.813214 9.9901 0.897865 9.95825C0.982516 9.92639 1.0598 9.87765 1.12501 9.81498L9.77083 1.55333C9.83286 1.49399 9.91539 1.46087 10.0012 1.46087C10.0871 1.46087 10.1696 1.49399 10.2317 1.55333L18.8783 9.81498C19.0057 9.93712 19.1763 10.0038 19.3527 10.0003C19.5292 9.99691 19.697 9.92365 19.8195 9.79664C20.0754 9.53164 20.0541 9.09414 19.7879 8.83956Z" fill="black"/>
</svg>
